<?xml version="1.0" encoding="UTF-8" standalone="no"?>
<!DOCTYPE svg PUBLIC "-//W3C//DTD SVG 1.1//EN"
 "http://www.w3.org/Graphics/SVG/1.1/DTD/svg11.dtd">
<!-- Generated by graphviz version 2.38.0 (20140413.2041)
 -->
<!-- Title: %3 Pages: 1 -->
<svg width="410pt" height="226pt"
 viewBox="0.00 0.00 409.51 226.00" xmlns="http://www.w3.org/2000/svg" xmlns:xlink="http://www.w3.org/1999/xlink">
<g id="graph0" class="graph" transform="scale(1 1) rotate(0) translate(4 222)">
<title>%3</title>
<polygon fill="white" stroke="none" points="-4,4 -4,-222 405.506,-222 405.506,4 -4,4"/>
<g id="clust1" class="cluster"><title>cluster100</title>
<path fill="none" stroke="black" d="M179.341,-8C179.341,-8 293.341,-8 293.341,-8 299.341,-8 305.341,-14 305.341,-20 305.341,-20 305.341,-70 305.341,-70 305.341,-76 299.341,-82 293.341,-82 293.341,-82 179.341,-82 179.341,-82 173.341,-82 167.341,-76 167.341,-70 167.341,-70 167.341,-20 167.341,-20 167.341,-14 173.341,-8 179.341,-8"/>
<text text-anchor="middle" x="286.841" y="-14.8" font-family="Times,serif" font-size="14.00">100</text>
</g>
<!-- alpha2 -->
<g id="node1" class="node"><title>alpha2</title>
<ellipse fill="none" stroke="black" cx="73.3411" cy="-200" rx="73.1825" ry="18"/>
<text text-anchor="middle" x="73.3411" y="-195.8" font-family="Times,serif" font-size="14.00">alpha2 ~ Uniform</text>
</g>
<!-- mu -->
<g id="node2" class="node"><title>mu</title>
<polygon fill="none" stroke="black" points="217.506,-146 93.1765,-146 93.1765,-110 217.506,-110 217.506,-146"/>
<text text-anchor="middle" x="155.341" y="-123.8" font-family="Times,serif" font-size="14.00">mu ~ Deterministic</text>
</g>
<!-- alpha2&#45;&gt;mu -->
<g id="edge1" class="edge"><title>alpha2&#45;&gt;mu</title>
<path fill="none" stroke="black" d="M92.7739,-182.411C103.164,-173.542 116.136,-162.467 127.571,-152.706"/>
<polygon fill="black" stroke="black" points="129.858,-155.356 135.191,-146.201 125.313,-150.032 129.858,-155.356"/>
</g>
<!-- data -->
<g id="node5" class="node"><title>data</title>
<ellipse fill="lightgrey" stroke="black" cx="236.341" cy="-56" rx="61.1122" ry="18"/>
<text text-anchor="middle" x="236.341" y="-51.8" font-family="Times,serif" font-size="14.00">data ~ Normal</text>
</g>
<!-- mu&#45;&gt;data -->
<g id="edge4" class="edge"><title>mu&#45;&gt;data</title>
<path fill="none" stroke="black" d="M175.364,-109.697C185.768,-100.705 198.62,-89.5984 209.838,-79.9038"/>
<polygon fill="black" stroke="black" points="212.382,-82.3314 217.659,-73.1446 207.805,-77.0351 212.382,-82.3314"/>
</g>
<!-- sigma -->
<g id="node3" class="node"><title>sigma</title>
<ellipse fill="none" stroke="black" cx="318.341" cy="-128" rx="83.3298" ry="18"/>
<text text-anchor="middle" x="318.341" y="-123.8" font-family="Times,serif" font-size="14.00">sigma ~ HalfCauchy</text>
</g>
<!-- sigma&#45;&gt;data -->
<g id="edge3" class="edge"><title>sigma&#45;&gt;data</title>
<path fill="none" stroke="black" d="M298.908,-110.411C288.211,-101.279 274.775,-89.8093 263.099,-79.8418"/>
<polygon fill="black" stroke="black" points="265.23,-77.0591 255.352,-73.2285 260.685,-82.3831 265.23,-77.0591"/>
</g>
<!-- alpha1 -->
<g id="node4" class="node"><title>alpha1</title>
<ellipse fill="none" stroke="black" cx="238.341" cy="-200" rx="73.1825" ry="18"/>
<text text-anchor="middle" x="238.341" y="-195.8" font-family="Times,serif" font-size="14.00">alpha1 ~ Uniform</text>
</g>
<!-- alpha1&#45;&gt;mu -->
<g id="edge2" class="edge"><title>alpha1&#45;&gt;mu</title>
<path fill="none" stroke="black" d="M218.671,-182.411C208.155,-173.542 195.024,-162.467 183.45,-152.706"/>
<polygon fill="black" stroke="black" points="185.637,-149.973 175.736,-146.201 181.124,-155.324 185.637,-149.973"/>
</g>
</g>
</svg>
