<?xml version="1.0" encoding="UTF-8" standalone="no"?>
<!DOCTYPE svg PUBLIC "-//W3C//DTD SVG 1.1//EN"
 "http://www.w3.org/Graphics/SVG/1.1/DTD/svg11.dtd">
<!-- Generated by graphviz version 2.38.0 (20140413.2041)
 -->
<!-- Title: %3 Pages: 1 -->
<svg width="403pt" height="226pt"
 viewBox="0.00 0.00 403.06 226.00" xmlns="http://www.w3.org/2000/svg" xmlns:xlink="http://www.w3.org/1999/xlink">
<g id="graph0" class="graph" transform="scale(1 1) rotate(0) translate(4 222)">
<title>%3</title>
<polygon fill="white" stroke="none" points="-4,4 -4,-222 399.064,-222 399.064,4 -4,4"/>
<g id="clust1" class="cluster"><title>cluster100</title>
<path fill="none" stroke="black" d="M172.9,-8C172.9,-8 286.9,-8 286.9,-8 292.9,-8 298.9,-14 298.9,-20 298.9,-20 298.9,-70 298.9,-70 298.9,-76 292.9,-82 286.9,-82 286.9,-82 172.9,-82 172.9,-82 166.9,-82 160.9,-76 160.9,-70 160.9,-70 160.9,-20 160.9,-20 160.9,-14 166.9,-8 172.9,-8"/>
<text text-anchor="middle" x="280.4" y="-14.8" font-family="Times,serif" font-size="14.00">100</text>
</g>
<!-- alpha2 -->
<g id="node1" class="node"><title>alpha2</title>
<ellipse fill="none" stroke="black" cx="69.8995" cy="-200" rx="69.7992" ry="18"/>
<text text-anchor="middle" x="69.8995" y="-195.8" font-family="Times,serif" font-size="14.00">alpha2 ~ Normal</text>
</g>
<!-- mu -->
<g id="node2" class="node"><title>mu</title>
<polygon fill="none" stroke="black" points="211.064,-146 86.735,-146 86.735,-110 211.064,-110 211.064,-146"/>
<text text-anchor="middle" x="148.9" y="-123.8" font-family="Times,serif" font-size="14.00">mu ~ Deterministic</text>
</g>
<!-- alpha2&#45;&gt;mu -->
<g id="edge1" class="edge"><title>alpha2&#45;&gt;mu</title>
<path fill="none" stroke="black" d="M88.6214,-182.411C98.5348,-173.627 110.889,-162.68 121.827,-152.988"/>
<polygon fill="black" stroke="black" points="124.324,-155.452 129.487,-146.201 119.681,-150.213 124.324,-155.452"/>
</g>
<!-- data -->
<g id="node5" class="node"><title>data</title>
<ellipse fill="lightgrey" stroke="black" cx="229.9" cy="-56" rx="61.1122" ry="18"/>
<text text-anchor="middle" x="229.9" y="-51.8" font-family="Times,serif" font-size="14.00">data ~ Normal</text>
</g>
<!-- mu&#45;&gt;data -->
<g id="edge4" class="edge"><title>mu&#45;&gt;data</title>
<path fill="none" stroke="black" d="M168.922,-109.697C179.327,-100.705 192.179,-89.5984 203.397,-79.9038"/>
<polygon fill="black" stroke="black" points="205.94,-82.3314 211.218,-73.1446 201.363,-77.0351 205.94,-82.3314"/>
</g>
<!-- sigma -->
<g id="node3" class="node"><title>sigma</title>
<ellipse fill="none" stroke="black" cx="311.9" cy="-128" rx="83.3298" ry="18"/>
<text text-anchor="middle" x="311.9" y="-123.8" font-family="Times,serif" font-size="14.00">sigma ~ HalfCauchy</text>
</g>
<!-- sigma&#45;&gt;data -->
<g id="edge3" class="edge"><title>sigma&#45;&gt;data</title>
<path fill="none" stroke="black" d="M292.467,-110.411C281.769,-101.279 268.333,-89.8093 256.657,-79.8418"/>
<polygon fill="black" stroke="black" points="258.788,-77.0591 248.91,-73.2285 254.243,-82.3831 258.788,-77.0591"/>
</g>
<!-- alpha1 -->
<g id="node4" class="node"><title>alpha1</title>
<ellipse fill="none" stroke="black" cx="227.9" cy="-200" rx="69.7992" ry="18"/>
<text text-anchor="middle" x="227.9" y="-195.8" font-family="Times,serif" font-size="14.00">alpha1 ~ Normal</text>
</g>
<!-- alpha1&#45;&gt;mu -->
<g id="edge2" class="edge"><title>alpha1&#45;&gt;mu</title>
<path fill="none" stroke="black" d="M209.178,-182.411C199.264,-173.627 186.91,-162.68 175.972,-152.988"/>
<polygon fill="black" stroke="black" points="178.118,-150.213 168.312,-146.201 173.475,-155.452 178.118,-150.213"/>
</g>
</g>
</svg>
