<?xml version="1.0" encoding="UTF-8" standalone="no"?>
<!DOCTYPE svg PUBLIC "-//W3C//DTD SVG 1.1//EN"
 "http://www.w3.org/Graphics/SVG/1.1/DTD/svg11.dtd">
<!-- Generated by graphviz version 2.38.0 (20140413.2041)
 -->
<!-- Title: %3 Pages: 1 -->
<svg width="546pt" height="228pt"
 viewBox="0.00 0.00 546.00 228.00" xmlns="http://www.w3.org/2000/svg" xmlns:xlink="http://www.w3.org/1999/xlink">
<g id="graph0" class="graph" transform="scale(1 1) rotate(0) translate(4 224)">
<title>%3</title>
<polygon fill="white" stroke="none" points="-4,4 -4,-224 542,-224 542,4 -4,4"/>
<g id="clust1" class="cluster"><title>cluster272</title>
<path fill="none" stroke="black" d="M20,-8C20,-8 212,-8 212,-8 218,-8 224,-14 224,-20 224,-20 224,-144 224,-144 224,-150 218,-156 212,-156 212,-156 20,-156 20,-156 14,-156 8,-150 8,-144 8,-144 8,-20 8,-20 8,-14 14,-8 20,-8"/>
<text text-anchor="middle" x="205.5" y="-14.8" font-family="Times,serif" font-size="14.00">272</text>
</g>
<g id="clust2" class="cluster"><title>cluster2</title>
<path fill="none" stroke="black" d="M244,-82C244,-82 518,-82 518,-82 524,-82 530,-88 530,-94 530,-94 530,-144 530,-144 530,-150 524,-156 518,-156 518,-156 244,-156 244,-156 238,-156 232,-150 232,-144 232,-144 232,-94 232,-94 232,-88 238,-82 244,-82"/>
<text text-anchor="middle" x="518.5" y="-88.8" font-family="Times,serif" font-size="14.00">2</text>
</g>
<!-- p -->
<g id="node1" class="node"><title>p</title>
<ellipse fill="none" stroke="black" cx="116" cy="-202" rx="54.3812" ry="18"/>
<text text-anchor="middle" x="116" y="-197.8" font-family="Times,serif" font-size="14.00">p ~ Uniform</text>
</g>
<!-- assignment -->
<g id="node2" class="node"><title>assignment</title>
<ellipse fill="none" stroke="black" cx="116" cy="-130" rx="99.7258" ry="18"/>
<text text-anchor="middle" x="116" y="-125.8" font-family="Times,serif" font-size="14.00">assignment ~ Categorical</text>
</g>
<!-- p&#45;&gt;assignment -->
<g id="edge1" class="edge"><title>p&#45;&gt;assignment</title>
<path fill="none" stroke="black" d="M116,-183.697C116,-175.983 116,-166.712 116,-158.112"/>
<polygon fill="black" stroke="black" points="119.5,-158.104 116,-148.104 112.5,-158.104 119.5,-158.104"/>
</g>
<!-- obs -->
<g id="node3" class="node"><title>obs</title>
<ellipse fill="lightgrey" stroke="black" cx="157" cy="-56" rx="58.7243" ry="18"/>
<text text-anchor="middle" x="157" y="-51.8" font-family="Times,serif" font-size="14.00">obs ~ Normal</text>
</g>
<!-- assignment&#45;&gt;obs -->
<g id="edge2" class="edge"><title>assignment&#45;&gt;obs</title>
<path fill="none" stroke="black" d="M125.716,-111.937C130.669,-103.239 136.796,-92.4799 142.311,-82.7948"/>
<polygon fill="black" stroke="black" points="145.446,-84.3623 147.353,-73.9405 139.363,-80.8984 145.446,-84.3623"/>
</g>
<!-- sds -->
<g id="node4" class="node"><title>sds</title>
<ellipse fill="none" stroke="black" cx="461" cy="-130" rx="61.1468" ry="18"/>
<text text-anchor="middle" x="461" y="-125.8" font-family="Times,serif" font-size="14.00">sds ~ Uniform</text>
</g>
<!-- sds&#45;&gt;obs -->
<g id="edge3" class="edge"><title>sds&#45;&gt;obs</title>
<path fill="none" stroke="black" d="M442.193,-112.65C428.842,-102.023 409.984,-88.9051 391,-82 361.39,-71.2296 282.517,-64.3624 224.491,-60.6047"/>
<polygon fill="black" stroke="black" points="224.481,-57.0972 214.28,-59.9614 224.04,-64.0834 224.481,-57.0972"/>
</g>
<!-- centers -->
<g id="node5" class="node"><title>centers</title>
<ellipse fill="none" stroke="black" cx="311" cy="-130" rx="71.2356" ry="18"/>
<text text-anchor="middle" x="311" y="-125.8" font-family="Times,serif" font-size="14.00">centers ~ Normal</text>
</g>
<!-- centers&#45;&gt;obs -->
<g id="edge4" class="edge"><title>centers&#45;&gt;obs</title>
<path fill="none" stroke="black" d="M285.449,-112.972C269.342,-103.264 247.897,-91.0506 228,-82 220.891,-78.7661 213.231,-75.6796 205.666,-72.848"/>
<polygon fill="black" stroke="black" points="206.776,-69.5275 196.182,-69.4055 204.387,-76.1075 206.776,-69.5275"/>
</g>
</g>
</svg>
