<?xml version="1.0" encoding="UTF-8" standalone="no"?>
<!DOCTYPE svg PUBLIC "-//W3C//DTD SVG 1.1//EN"
 "http://www.w3.org/Graphics/SVG/1.1/DTD/svg11.dtd">
<!-- Generated by graphviz version 2.38.0 (20140413.2041)
 -->
<!-- Title: %3 Pages: 1 -->
<svg width="689pt" height="154pt"
 viewBox="0.00 0.00 688.79 154.00" xmlns="http://www.w3.org/2000/svg" xmlns:xlink="http://www.w3.org/1999/xlink">
<g id="graph0" class="graph" transform="scale(1 1) rotate(0) translate(4 150)">
<title>%3</title>
<polygon fill="white" stroke="none" points="-4,4 -4,-150 684.79,-150 684.79,4 -4,4"/>
<g id="clust1" class="cluster"><title>cluster111</title>
<path fill="none" stroke="black" d="M284.499,-8C284.499,-8 430.499,-8 430.499,-8 436.499,-8 442.499,-14 442.499,-20 442.499,-20 442.499,-70 442.499,-70 442.499,-76 436.499,-82 430.499,-82 430.499,-82 284.499,-82 284.499,-82 278.499,-82 272.499,-76 272.499,-70 272.499,-70 272.499,-20 272.499,-20 272.499,-14 278.499,-8 284.499,-8"/>
<text text-anchor="middle" x="424.512" y="-14.8" font-family="Times,serif" font-size="14.00">111</text>
</g>
<!-- switchpoint -->
<g id="node1" class="node"><title>switchpoint</title>
<ellipse fill="none" stroke="black" cx="120.499" cy="-128" rx="120.498" ry="18"/>
<text text-anchor="middle" x="120.499" y="-123.8" font-family="Times,serif" font-size="14.00">switchpoint ~ DiscreteUniform</text>
</g>
<!-- disasters -->
<g id="node4" class="node"><title>disasters</title>
<ellipse fill="lightgrey" stroke="black" cx="357.499" cy="-56" rx="77.0848" ry="18"/>
<text text-anchor="middle" x="357.499" y="-51.8" font-family="Times,serif" font-size="14.00">disasters ~ Poisson</text>
</g>
<!-- switchpoint&#45;&gt;disasters -->
<g id="edge1" class="edge"><title>switchpoint&#45;&gt;disasters</title>
<path fill="none" stroke="black" d="M172.217,-111.725C210.513,-100.414 262.625,-85.022 301.829,-73.4427"/>
<polygon fill="black" stroke="black" points="302.903,-76.775 311.502,-70.5857 300.92,-70.0617 302.903,-76.775"/>
</g>
<!-- late_mean -->
<g id="node2" class="node"><title>late_mean</title>
<ellipse fill="none" stroke="black" cx="357.499" cy="-128" rx="98.2636" ry="18"/>
<text text-anchor="middle" x="357.499" y="-123.8" font-family="Times,serif" font-size="14.00">late_mean ~ Exponential</text>
</g>
<!-- late_mean&#45;&gt;disasters -->
<g id="edge2" class="edge"><title>late_mean&#45;&gt;disasters</title>
<path fill="none" stroke="black" d="M357.499,-109.697C357.499,-101.983 357.499,-92.7125 357.499,-84.1124"/>
<polygon fill="black" stroke="black" points="360.999,-84.1043 357.499,-74.1043 353.999,-84.1044 360.999,-84.1043"/>
</g>
<!-- early_mean -->
<g id="node3" class="node"><title>early_mean</title>
<ellipse fill="none" stroke="black" cx="577.499" cy="-128" rx="103.083" ry="18"/>
<text text-anchor="middle" x="577.499" y="-123.8" font-family="Times,serif" font-size="14.00">early_mean ~ Exponential</text>
</g>
<!-- early_mean&#45;&gt;disasters -->
<g id="edge3" class="edge"><title>early_mean&#45;&gt;disasters</title>
<path fill="none" stroke="black" d="M530.303,-111.983C495.335,-100.857 447.633,-85.6791 411.206,-74.0886"/>
<polygon fill="black" stroke="black" points="411.841,-70.6178 401.251,-70.921 409.719,-77.2883 411.841,-70.6178"/>
</g>
</g>
</svg>
