<?xml version="1.0" encoding="UTF-8" standalone="no"?>
<!DOCTYPE svg PUBLIC "-//W3C//DTD SVG 1.1//EN"
 "http://www.w3.org/Graphics/SVG/1.1/DTD/svg11.dtd">
<!-- Generated by graphviz version 2.38.0 (20140413.2041)
 -->
<!-- Title: %3 Pages: 1 -->
<svg width="752pt" height="228pt"
 viewBox="0.00 0.00 752.50 228.00" xmlns="http://www.w3.org/2000/svg" xmlns:xlink="http://www.w3.org/1999/xlink">
<g id="graph0" class="graph" transform="scale(1 1) rotate(0) translate(4 224)">
<title>%3</title>
<polygon fill="white" stroke="none" points="-4,4 -4,-224 748.499,-224 748.499,4 -4,4"/>
<g id="clust1" class="cluster"><title>cluster111</title>
<path fill="none" stroke="black" d="M284.499,-8C284.499,-8 430.499,-8 430.499,-8 436.499,-8 442.499,-14 442.499,-20 442.499,-20 442.499,-144 442.499,-144 442.499,-150 436.499,-156 430.499,-156 430.499,-156 284.499,-156 284.499,-156 278.499,-156 272.499,-150 272.499,-144 272.499,-144 272.499,-20 272.499,-20 272.499,-14 278.499,-8 284.499,-8"/>
<text text-anchor="middle" x="424.512" y="-14.8" font-family="Times,serif" font-size="14.00">111</text>
</g>
<g id="clust2" class="cluster"><title>cluster2</title>
<path fill="none" stroke="black" d="M462.499,-82C462.499,-82 724.499,-82 724.499,-82 730.499,-82 736.499,-88 736.499,-94 736.499,-94 736.499,-144 736.499,-144 736.499,-150 730.499,-156 724.499,-156 724.499,-156 462.499,-156 462.499,-156 456.499,-156 450.499,-150 450.499,-144 450.499,-144 450.499,-94 450.499,-94 450.499,-88 456.499,-82 462.499,-82"/>
<text text-anchor="middle" x="724.999" y="-88.8" font-family="Times,serif" font-size="14.00">2</text>
</g>
<!-- switchpoint -->
<g id="node1" class="node"><title>switchpoint</title>
<ellipse fill="none" stroke="black" cx="120.499" cy="-202" rx="120.498" ry="18"/>
<text text-anchor="middle" x="120.499" y="-197.8" font-family="Times,serif" font-size="14.00">switchpoint ~ DiscreteUniform</text>
</g>
<!-- rate -->
<g id="node5" class="node"><title>rate</title>
<polygon fill="none" stroke="black" points="421.253,-148 293.745,-148 293.745,-112 421.253,-112 421.253,-148"/>
<text text-anchor="middle" x="357.499" y="-125.8" font-family="Times,serif" font-size="14.00">rate ~ Deterministic</text>
</g>
<!-- switchpoint&#45;&gt;rate -->
<g id="edge1" class="edge"><title>switchpoint&#45;&gt;rate</title>
<path fill="none" stroke="black" d="M172.217,-185.725C206.725,-175.533 252.45,-162.027 289.842,-150.983"/>
<polygon fill="black" stroke="black" points="291.054,-154.275 299.653,-148.085 289.071,-147.561 291.054,-154.275"/>
</g>
<!-- late_mean -->
<g id="node2" class="node"><title>late_mean</title>
<ellipse fill="none" stroke="black" cx="357.499" cy="-202" rx="98.2636" ry="18"/>
<text text-anchor="middle" x="357.499" y="-197.8" font-family="Times,serif" font-size="14.00">late_mean ~ Exponential</text>
</g>
<!-- late_mean&#45;&gt;rate -->
<g id="edge2" class="edge"><title>late_mean&#45;&gt;rate</title>
<path fill="none" stroke="black" d="M357.499,-183.697C357.499,-175.983 357.499,-166.712 357.499,-158.112"/>
<polygon fill="black" stroke="black" points="360.999,-158.104 357.499,-148.104 353.999,-158.104 360.999,-158.104"/>
</g>
<!-- early_mean -->
<g id="node3" class="node"><title>early_mean</title>
<ellipse fill="none" stroke="black" cx="577.499" cy="-202" rx="103.083" ry="18"/>
<text text-anchor="middle" x="577.499" y="-197.8" font-family="Times,serif" font-size="14.00">early_mean ~ Exponential</text>
</g>
<!-- early_mean&#45;&gt;rate -->
<g id="edge3" class="edge"><title>early_mean&#45;&gt;rate</title>
<path fill="none" stroke="black" d="M530.303,-185.983C498.336,-175.812 455.726,-162.254 420.817,-151.147"/>
<polygon fill="black" stroke="black" points="421.781,-147.781 411.191,-148.084 419.659,-154.451 421.781,-147.781"/>
</g>
<!-- disasters -->
<g id="node4" class="node"><title>disasters</title>
<ellipse fill="lightgrey" stroke="black" cx="357.499" cy="-56" rx="77.0848" ry="18"/>
<text text-anchor="middle" x="357.499" y="-51.8" font-family="Times,serif" font-size="14.00">disasters ~ Poisson</text>
</g>
<!-- rate&#45;&gt;disasters -->
<g id="edge4" class="edge"><title>rate&#45;&gt;disasters</title>
<path fill="none" stroke="black" d="M357.499,-111.937C357.499,-103.807 357.499,-93.8761 357.499,-84.7047"/>
<polygon fill="black" stroke="black" points="360.999,-84.4406 357.499,-74.4407 353.999,-84.4407 360.999,-84.4406"/>
</g>
<!-- disasters_missing -->
<g id="node6" class="node"><title>disasters_missing</title>
<ellipse fill="none" stroke="black" cx="593.499" cy="-130" rx="135.026" ry="18"/>
<text text-anchor="middle" x="593.499" y="-125.8" font-family="Times,serif" font-size="14.00">disasters_missing ~ NoDistribution</text>
</g>
<!-- disasters_missing&#45;&gt;disasters -->
<g id="edge5" class="edge"><title>disasters_missing&#45;&gt;disasters</title>
<path fill="none" stroke="black" d="M545.302,-113.113C516.671,-103.795 479.603,-91.9382 446.499,-82 436.481,-78.9925 425.796,-75.896 415.432,-72.9508"/>
<polygon fill="black" stroke="black" points="416.201,-69.5313 405.627,-70.1813 414.299,-76.2677 416.201,-69.5313"/>
</g>
</g>
</svg>
